<mxfile host="app.diagrams.net" modified="2022-05-30T12:16:48.001Z" agent="5.0 (Macintosh; Intel Mac OS X 10_15_7) AppleWebKit/537.36 (KHTML, like Gecko) Chrome/101.0.4951.64 Safari/537.36" etag="9EShaunc6fXyH56K2MMJ" version="18.0.7" type="github">
  <diagram id="C5RBs43oDa-KdzZeNtuy" name="Page-1">
    <mxGraphModel dx="1533" dy="823" grid="1" gridSize="10" guides="1" tooltips="1" connect="1" arrows="1" fold="1" page="1" pageScale="1" pageWidth="827" pageHeight="1169" math="0" shadow="0">
      <root>
        <mxCell id="WIyWlLk6GJQsqaUBKTNV-0" />
        <mxCell id="WIyWlLk6GJQsqaUBKTNV-1" parent="WIyWlLk6GJQsqaUBKTNV-0" />
        <mxCell id="_Qrjj7MO7bXbj3af5D12-1" value="" style="edgeStyle=orthogonalEdgeStyle;rounded=0;orthogonalLoop=1;jettySize=auto;html=1;" edge="1" parent="WIyWlLk6GJQsqaUBKTNV-1" source="WIyWlLk6GJQsqaUBKTNV-3" target="_Qrjj7MO7bXbj3af5D12-0">
          <mxGeometry relative="1" as="geometry" />
        </mxCell>
        <mxCell id="WIyWlLk6GJQsqaUBKTNV-3" value="创建socket集合fdset" style="rounded=1;whiteSpace=wrap;html=1;fontSize=12;glass=0;strokeWidth=1;shadow=0;" parent="WIyWlLk6GJQsqaUBKTNV-1" vertex="1">
          <mxGeometry x="160" y="80" width="120" height="40" as="geometry" />
        </mxCell>
        <mxCell id="_Qrjj7MO7bXbj3af5D12-3" value="" style="edgeStyle=orthogonalEdgeStyle;rounded=0;orthogonalLoop=1;jettySize=auto;html=1;" edge="1" parent="WIyWlLk6GJQsqaUBKTNV-1" source="_Qrjj7MO7bXbj3af5D12-0" target="_Qrjj7MO7bXbj3af5D12-2">
          <mxGeometry relative="1" as="geometry" />
        </mxCell>
        <mxCell id="_Qrjj7MO7bXbj3af5D12-0" value="把监听 socket（listenfd) 加入集合fdset" style="whiteSpace=wrap;html=1;rounded=1;glass=0;strokeWidth=1;shadow=0;" vertex="1" parent="WIyWlLk6GJQsqaUBKTNV-1">
          <mxGeometry x="160" y="190" width="120" height="60" as="geometry" />
        </mxCell>
        <mxCell id="_Qrjj7MO7bXbj3af5D12-5" value="" style="edgeStyle=orthogonalEdgeStyle;rounded=0;orthogonalLoop=1;jettySize=auto;html=1;" edge="1" parent="WIyWlLk6GJQsqaUBKTNV-1" source="_Qrjj7MO7bXbj3af5D12-2" target="_Qrjj7MO7bXbj3af5D12-4">
          <mxGeometry relative="1" as="geometry" />
        </mxCell>
        <mxCell id="_Qrjj7MO7bXbj3af5D12-2" value="阻塞在 select ：&lt;br&gt;select(maxfd,fdset,NULL,NULL)&lt;br&gt;" style="whiteSpace=wrap;html=1;rounded=1;glass=0;strokeWidth=1;shadow=0;" vertex="1" parent="WIyWlLk6GJQsqaUBKTNV-1">
          <mxGeometry x="120" y="310" width="200" height="90" as="geometry" />
        </mxCell>
        <mxCell id="_Qrjj7MO7bXbj3af5D12-7" value="" style="edgeStyle=orthogonalEdgeStyle;rounded=0;orthogonalLoop=1;jettySize=auto;html=1;exitX=0;exitY=0.5;exitDx=0;exitDy=0;" edge="1" parent="WIyWlLk6GJQsqaUBKTNV-1" source="_Qrjj7MO7bXbj3af5D12-4" target="_Qrjj7MO7bXbj3af5D12-6">
          <mxGeometry relative="1" as="geometry" />
        </mxCell>
        <mxCell id="_Qrjj7MO7bXbj3af5D12-12" value="监听 socket &lt;br&gt;有事件" style="edgeLabel;html=1;align=center;verticalAlign=middle;resizable=0;points=[];" vertex="1" connectable="0" parent="_Qrjj7MO7bXbj3af5D12-7">
          <mxGeometry x="-0.32" relative="1" as="geometry">
            <mxPoint x="-13" as="offset" />
          </mxGeometry>
        </mxCell>
        <mxCell id="_Qrjj7MO7bXbj3af5D12-17" value="" style="edgeStyle=orthogonalEdgeStyle;rounded=0;orthogonalLoop=1;jettySize=auto;html=1;" edge="1" parent="WIyWlLk6GJQsqaUBKTNV-1" target="_Qrjj7MO7bXbj3af5D12-16">
          <mxGeometry relative="1" as="geometry">
            <mxPoint x="220" y="550" as="sourcePoint" />
          </mxGeometry>
        </mxCell>
        <mxCell id="_Qrjj7MO7bXbj3af5D12-4" value="fdset中 socket &lt;br&gt;有事件" style="rhombus;whiteSpace=wrap;html=1;rounded=1;glass=0;strokeWidth=1;shadow=0;" vertex="1" parent="WIyWlLk6GJQsqaUBKTNV-1">
          <mxGeometry x="165" y="450" width="110" height="100" as="geometry" />
        </mxCell>
        <mxCell id="_Qrjj7MO7bXbj3af5D12-10" style="edgeStyle=orthogonalEdgeStyle;rounded=0;orthogonalLoop=1;jettySize=auto;html=1;entryX=0;entryY=0.5;entryDx=0;entryDy=0;exitX=0;exitY=0.5;exitDx=0;exitDy=0;" edge="1" parent="WIyWlLk6GJQsqaUBKTNV-1" source="_Qrjj7MO7bXbj3af5D12-6" target="_Qrjj7MO7bXbj3af5D12-2">
          <mxGeometry relative="1" as="geometry">
            <Array as="points">
              <mxPoint x="-30" y="510" />
              <mxPoint x="-30" y="355" />
            </Array>
          </mxGeometry>
        </mxCell>
        <mxCell id="_Qrjj7MO7bXbj3af5D12-11" value="把新的客户端socket&lt;br&gt;加入fdset中" style="edgeLabel;html=1;align=center;verticalAlign=middle;resizable=0;points=[];" vertex="1" connectable="0" parent="_Qrjj7MO7bXbj3af5D12-10">
          <mxGeometry x="0.0729" y="-3" relative="1" as="geometry">
            <mxPoint x="-3" y="40" as="offset" />
          </mxGeometry>
        </mxCell>
        <mxCell id="_Qrjj7MO7bXbj3af5D12-6" value="&amp;nbsp;listenfd 有事件，有新的 socket 连接" style="whiteSpace=wrap;html=1;rounded=1;glass=0;strokeWidth=1;shadow=0;" vertex="1" parent="WIyWlLk6GJQsqaUBKTNV-1">
          <mxGeometry x="-80" y="470" width="120" height="60" as="geometry" />
        </mxCell>
        <mxCell id="_Qrjj7MO7bXbj3af5D12-19" value="" style="edgeStyle=orthogonalEdgeStyle;rounded=0;orthogonalLoop=1;jettySize=auto;html=1;" edge="1" parent="WIyWlLk6GJQsqaUBKTNV-1" source="_Qrjj7MO7bXbj3af5D12-16" target="_Qrjj7MO7bXbj3af5D12-18">
          <mxGeometry relative="1" as="geometry" />
        </mxCell>
        <mxCell id="_Qrjj7MO7bXbj3af5D12-24" value="客户端事件是读写" style="edgeLabel;html=1;align=center;verticalAlign=middle;resizable=0;points=[];" vertex="1" connectable="0" parent="_Qrjj7MO7bXbj3af5D12-19">
          <mxGeometry x="-0.4182" relative="1" as="geometry">
            <mxPoint as="offset" />
          </mxGeometry>
        </mxCell>
        <mxCell id="_Qrjj7MO7bXbj3af5D12-21" value="" style="edgeStyle=orthogonalEdgeStyle;rounded=0;orthogonalLoop=1;jettySize=auto;html=1;" edge="1" parent="WIyWlLk6GJQsqaUBKTNV-1" source="_Qrjj7MO7bXbj3af5D12-16" target="_Qrjj7MO7bXbj3af5D12-20">
          <mxGeometry relative="1" as="geometry" />
        </mxCell>
        <mxCell id="_Qrjj7MO7bXbj3af5D12-25" value="客户端事件&lt;br&gt;断开连接" style="edgeLabel;html=1;align=center;verticalAlign=middle;resizable=0;points=[];" vertex="1" connectable="0" parent="_Qrjj7MO7bXbj3af5D12-21">
          <mxGeometry x="-0.2714" y="3" relative="1" as="geometry">
            <mxPoint x="19" y="3" as="offset" />
          </mxGeometry>
        </mxCell>
        <mxCell id="_Qrjj7MO7bXbj3af5D12-16" value="客户端 socket&lt;br&gt;&amp;nbsp;事件" style="rhombus;whiteSpace=wrap;html=1;rounded=1;glass=0;strokeWidth=1;shadow=0;" vertex="1" parent="WIyWlLk6GJQsqaUBKTNV-1">
          <mxGeometry x="180" y="585" width="80" height="80" as="geometry" />
        </mxCell>
        <mxCell id="_Qrjj7MO7bXbj3af5D12-18" value="处理客户端读写请求" style="whiteSpace=wrap;html=1;rounded=1;glass=0;strokeWidth=1;shadow=0;" vertex="1" parent="WIyWlLk6GJQsqaUBKTNV-1">
          <mxGeometry x="160" y="720" width="120" height="60" as="geometry" />
        </mxCell>
        <mxCell id="_Qrjj7MO7bXbj3af5D12-26" style="edgeStyle=orthogonalEdgeStyle;rounded=0;orthogonalLoop=1;jettySize=auto;html=1;exitX=0.5;exitY=0;exitDx=0;exitDy=0;entryX=1;entryY=0.5;entryDx=0;entryDy=0;" edge="1" parent="WIyWlLk6GJQsqaUBKTNV-1" source="_Qrjj7MO7bXbj3af5D12-20" target="_Qrjj7MO7bXbj3af5D12-2">
          <mxGeometry relative="1" as="geometry" />
        </mxCell>
        <mxCell id="_Qrjj7MO7bXbj3af5D12-27" value="从 fdset 中移出断开连接的 socket" style="edgeLabel;html=1;align=center;verticalAlign=middle;resizable=0;points=[];" vertex="1" connectable="0" parent="_Qrjj7MO7bXbj3af5D12-26">
          <mxGeometry x="-0.4263" y="-2" relative="1" as="geometry">
            <mxPoint as="offset" />
          </mxGeometry>
        </mxCell>
        <mxCell id="_Qrjj7MO7bXbj3af5D12-20" value="客户端输入是 exit" style="whiteSpace=wrap;html=1;rounded=1;glass=0;strokeWidth=1;shadow=0;" vertex="1" parent="WIyWlLk6GJQsqaUBKTNV-1">
          <mxGeometry x="400" y="595" width="120" height="60" as="geometry" />
        </mxCell>
      </root>
    </mxGraphModel>
  </diagram>
</mxfile>
